# xmcd
#
# Track frame offsets:
#	150
#	14236
#	26557
#	39071
#	53138
#	66079
#	76534
#	92347
#	104648
#	116216
#	127547
#
# Disc length: 1833 seconds
#
# Revision: 1
# Processed by: cddbd v1.5.1PL2 Copyright (c) Steve Scherf et al.
# Submitted via: dBpowerAMP V4.0
#
DISCID=7e07270b
DTITLE=Gary Revel - Deep Mountain Lake
DYEAR=2006
DGENRE=Country
TTITLE0=An Old Frame House
TTITLE1=Deep Mountain Lake
TTITLE2=I Know - Artist Dale Tuttle
TTITLE3=In My Dreams
TTITLE4=Just As Long As We're Together
TTITLE5=Land Of Make Believe
TTITLE6=Little Did We Know
TTITLE7=Mother Nature
TTITLE8=My Baby's Gonna Leave
TTITLE9=Peanut Man
TTITLE10=They Slew The Dreamer
EXTD=Eclectic Album ranging from Country to Pop with 10 tracks by Gary Revel and 1 by Dale Tuttle on Jongleur Music and published by Sony/ATV Milene
EXTT0=
EXTT1=
EXTT2=
EXTT3=
EXTT4=
EXTT5=
EXTT6=
EXTT7=
EXTT8=
EXTT9=
EXTT10=
PLAYORDER=
